<?xml version="1.0" standalone="no"?>
<!DOCTYPE svg PUBLIC "-//W3C//DTD SVG 20010904//EN"
 "http://www.w3.org/TR/2001/REC-SVG-20010904/DTD/svg10.dtd">
<svg version="1.0" xmlns="http://www.w3.org/2000/svg"
 width="260.000000pt" height="260.000000pt" viewBox="0 0 260.000000 260.000000"
 preserveAspectRatio="xMidYMid meet">
<metadata>
Created by potrace 1.14, written by Peter Selinger 2001-2017
</metadata>
<g transform="translate(0.000000,260.000000) scale(0.100000,-0.100000)"
fill="#000000" stroke="none">
<path d="M555 2405 c-234 -44 -398 -258 -480 -625 -33 -148 -40 -220 -40 -425
0 -188 7 -279 30 -380 8 -33 16 -71 18 -85 21 -119 114 -319 192 -414 180
-220 493 -240 696 -45 55 53 128 150 130 173 1 12 23 -88 34 -152 4 -20 9 -50
12 -67 3 -16 7 -32 10 -35 7 -7 284 -6 289 1 4 8 38 170 48 229 3 19 17 93 31
165 14 71 28 143 31 160 3 16 9 48 14 70 5 22 12 56 15 75 3 19 17 89 30 155
13 66 29 157 36 202 7 45 15 81 16 79 3 -3 29 -132 39 -196 3 -19 7 -37 9 -40
2 -3 6 -26 10 -50 4 -25 15 -88 26 -140 11 -52 22 -106 24 -120 3 -14 16 -84
30 -155 14 -72 28 -146 31 -165 3 -19 17 -88 30 -154 13 -65 24 -119 24 -120
0 -1 68 -1 150 -1 126 0 151 2 155 15 3 12 47 236 81 420 3 14 14 70 25 125
11 55 22 114 25 130 2 17 7 37 9 45 2 8 7 30 10 48 3 18 16 88 30 155 38 191
154 788 160 827 3 19 13 66 21 103 9 38 14 71 11 73 -5 5 -327 11 -327 6 0 -1
-16 -93 -36 -205 -19 -111 -37 -213 -39 -227 -2 -14 -11 -65 -20 -115 -9 -49
-18 -103 -21 -120 -3 -16 -7 -37 -9 -45 -2 -8 -6 -33 -10 -55 -3 -22 -12 -76
-20 -120 -8 -44 -17 -96 -20 -115 -3 -19 -7 -46 -10 -60 -3 -14 -7 -47 -11
-75 -7 -58 -14 -71 -15 -29 -1 39 -7 73 -29 174 -10 47 -31 144 -45 215 -14
72 -30 146 -35 165 -5 19 -11 53 -15 75 -3 22 -8 48 -11 57 -3 9 -7 27 -9 40
-3 13 -24 116 -47 231 l-43 207 -40 1 c-22 0 -82 1 -132 2 -51 1 -93 0 -94 -3
-1 -9 -8 -45 -23 -125 -9 -44 -18 -93 -21 -110 -12 -63 -35 -185 -60 -315 -14
-74 -27 -144 -29 -155 -2 -11 -10 -49 -16 -85 -7 -36 -14 -74 -16 -85 -1 -11
-10 -56 -19 -100 -9 -44 -19 -100 -22 -125 -3 -25 -9 -52 -14 -60 -8 -13 -9
-13 -7 0 2 14 -7 78 -18 133 -2 12 -6 36 -8 52 -2 17 -12 73 -21 125 -9 52
-18 109 -21 125 -2 17 -6 41 -9 55 -3 14 -8 45 -11 70 -3 25 -8 54 -11 65 -3
11 -7 31 -9 45 -5 38 -10 72 -17 105 -6 28 -16 90 -22 141 -2 11 -8 45 -13 75
-6 30 -13 75 -17 101 -3 26 -10 50 -15 53 -4 3 -23 -23 -40 -58 -18 -34 -45
-84 -60 -112 -15 -27 -51 -95 -80 -150 -30 -55 -57 -102 -60 -105 -4 -3 6 -70
22 -150 15 -80 30 -157 33 -172 l5 -28 -195 0 -195 0 0 -155 c0 -117 3 -155
13 -156 6 0 57 -1 112 -2 l100 -2 1 -240 c0 -132 -2 -246 -4 -253 -7 -20 -78
-52 -117 -52 -50 0 -90 23 -125 72 -34 46 -74 163 -89 260 -6 34 -13 79 -17
98 -3 19 -7 130 -9 245 -6 441 64 700 202 746 70 23 166 -42 226 -152 27 -52
35 -44 18 21 -6 19 -12 52 -15 72 -3 21 -10 57 -15 80 -10 45 -14 66 -26 133
-4 22 -9 48 -12 58 -4 16 9 17 164 17 168 0 168 0 143 20 -40 31 -120 67 -186
84 -77 20 -271 26 -349 11z m544 -1324 l-1 -416 -24 115 c-13 63 -26 129 -28
145 -3 17 -21 109 -40 205 -19 96 -37 189 -40 205 -3 17 -10 54 -16 84 -16 83
-19 79 70 78 l80 0 -1 -416z"/>
</g>
</svg>
